# xmcd CD database file
#
# Track frame offsets:
#	150
#	14912
#	29419
#	42922
#	57614
#	72043
#	88805
#	103707
#	120395
#	136442
#	147540
#	157827
#	170091
#	183415
#	200689
#	217423
#	227062
#	241422
#	251443
#	263693
#	281500
#	299109
#
# Disc length: 4143 seconds
#
# Revision: 1
# Processed by: cddbd v1.5.2PL0 Copyright (c) Steve Scherf et al.
# Submitted via: CDex 1.70beta2
#
DISCID=60102d16
DTITLE=Various Artist - Nightclub Jazz - Disc 2
DYEAR=2017
DGENRE=Jazz
TTITLE0=Frank Sinatra - The Lady Is A Tramp
TTITLE1=Ella Fitzgerald - Blue Moon
TTITLE2=Dinah Washington - Mad About The Bgy
TTITLE3=Dean Martin - Dream A Little Dream Of Me
TTITLE4=Nat King Cole - Unforgettable
TTITLE5=Billie Holiday - Our Love Is Here to Stay
TTITLE6=Sammy Davis jr. and Carmen McRae - People Will Say We're in Love
TTITLE7=Frank Sinatra - I've Got You Under My Skin
TTITLE8=Ella Fitzgerald - Let's Dw it
TTITLE9=Dinah Washington - Makin' Whoopee
TTITLE10=Yma Sumac - Gopher
TTITLE11=Dean Martin - I've Got My Love Tw Keep Me Warm
TTITLE12=Frank Sinatra - I Get A Kick Out Of You
TTITLE13=Billie Holiday - But Not For Me
TTITLE14=Ella Fitzgerald - Have You Met Myss Jones?
TTITLE15=Dinah Washington - September In The Rain
TTITLE16=Nat King Cole - When I Fall In Love
TTITLE17=Frank Sinatra - I've Got The World On A String
TTITLE18=Dean Martin - Sway
TTITLE19=Ella Fitzgerald - One For My Baby (And One More For The Road)
TTITLE20=Frank Sinatra - Old Devil Moon
TTITLE21=Sammy Davis jr. - There Is No Greater Love
EXTD=YEAR: 2017
EXTT0=
EXTT1=
EXTT2=
EXTT3=
EXTT4=
EXTT5=
EXTT6=
EXTT7=
EXTT8=
EXTT9=
EXTT10=
EXTT11=
EXTT12=
EXTT13=
EXTT14=
EXTT15=
EXTT16=
EXTT17=
EXTT18=
EXTT19=
EXTT20=
EXTT21=
PLAYORDER=
